<?xml version="1.0" encoding="UTF-8" standalone="no"?>
<!DOCTYPE svg PUBLIC "-//W3C//DTD SVG 1.1//EN"
 "http://www.w3.org/Graphics/SVG/1.1/DTD/svg11.dtd">
<!-- Generated by graphviz version 2.38.0 (20140413.2041)
 -->
<!-- Title: call&#45;graph Pages: 1 -->
<svg width="314pt" height="260pt"
 viewBox="0.00 0.00 313.84 260.00" xmlns="http://www.w3.org/2000/svg" xmlns:xlink="http://www.w3.org/1999/xlink">
<g id="graph0" class="graph" transform="scale(1 1) rotate(0) translate(4 256)">
<title>call&#45;graph</title>
<polygon fill="white" stroke="none" points="-4,4 -4,-256 309.844,-256 309.844,4 -4,4"/>
<!-- shred -->
<g id="node1" class="node"><title>shred</title>
<ellipse fill="none" stroke="black" cx="108.296" cy="-234" rx="29.795" ry="18"/>
<text text-anchor="middle" x="108.296" y="-230.3" font-family="Times,serif" font-size="14.00">shred</text>
</g>
<!-- gnar_gnar -->
<g id="node2" class="node"><title>gnar_gnar</title>
<ellipse fill="none" stroke="black" cx="182.296" cy="-162" rx="46.2923" ry="18"/>
<text text-anchor="middle" x="182.296" y="-158.3" font-family="Times,serif" font-size="14.00">gnar_gnar</text>
</g>
<!-- shred&#45;&gt;gnar_gnar -->
<g id="edge1" class="edge"><title>shred&#45;&gt;gnar_gnar</title>
<path fill="none" stroke="black" d="M123.629,-218.496C133.535,-209.125 146.641,-196.728 157.952,-186.028"/>
<polygon fill="black" stroke="black" points="160.576,-188.364 165.435,-178.95 155.765,-183.279 160.576,-188.364"/>
</g>
<!-- bluebird -->
<g id="node3" class="node"><title>bluebird</title>
<ellipse fill="none" stroke="black" cx="40.2964" cy="-162" rx="40.0939" ry="18"/>
<text text-anchor="middle" x="40.2964" y="-158.3" font-family="Times,serif" font-size="14.00">bluebird</text>
</g>
<!-- shred&#45;&gt;bluebird -->
<g id="edge2" class="edge"><title>shred&#45;&gt;bluebird</title>
<path fill="none" stroke="black" d="M93.8754,-218.155C84.8404,-208.854 73.0073,-196.673 62.7602,-186.124"/>
<polygon fill="black" stroke="black" points="65.1201,-183.531 55.6417,-178.797 60.0991,-188.408 65.1201,-183.531"/>
</g>
<!-- weather_report -->
<g id="node4" class="node"><title>weather_report</title>
<ellipse fill="none" stroke="black" cx="90.2964" cy="-90" rx="63.8893" ry="18"/>
<text text-anchor="middle" x="90.2964" y="-86.3" font-family="Times,serif" font-size="14.00">weather_report</text>
</g>
<!-- gnar_gnar&#45;&gt;weather_report -->
<g id="edge3" class="edge"><title>gnar_gnar&#45;&gt;weather_report</title>
<path fill="none" stroke="black" d="M161.879,-145.465C149.516,-136.058 133.539,-123.902 119.817,-113.461"/>
<polygon fill="black" stroke="black" points="121.694,-110.491 111.616,-107.222 117.455,-116.062 121.694,-110.491"/>
</g>
<!-- pow -->
<g id="node5" class="node"><title>pow</title>
<ellipse fill="none" stroke="black" cx="199.296" cy="-90" rx="27" ry="18"/>
<text text-anchor="middle" x="199.296" y="-86.3" font-family="Times,serif" font-size="14.00">pow</text>
</g>
<!-- gnar_gnar&#45;&gt;pow -->
<g id="edge4" class="edge"><title>gnar_gnar&#45;&gt;pow</title>
<path fill="none" stroke="black" d="M186.412,-144.055C188.304,-136.261 190.597,-126.822 192.72,-118.079"/>
<polygon fill="black" stroke="black" points="196.142,-118.819 195.101,-108.275 189.34,-117.167 196.142,-118.819"/>
</g>
<!-- bluebird&#45;&gt;weather_report -->
<g id="edge5" class="edge"><title>bluebird&#45;&gt;weather_report</title>
<path fill="none" stroke="black" d="M52.1457,-144.411C58.1596,-135.992 65.5929,-125.585 72.2959,-116.201"/>
<polygon fill="black" stroke="black" points="75.2205,-118.128 78.1848,-107.956 69.5243,-114.059 75.2205,-118.128"/>
</g>
<!-- weather_report&#45;&gt;shred -->
<g id="edge6" class="edge"><title>weather_report&#45;&gt;shred</title>
<path fill="none" stroke="black" d="M92.4753,-108.189C95.5474,-132.424 101.184,-176.888 104.833,-205.679"/>
<polygon fill="black" stroke="black" points="101.395,-206.391 106.125,-215.871 108.34,-205.511 101.395,-206.391"/>
</g>
<!-- fluffy -->
<g id="node6" class="node"><title>fluffy</title>
<ellipse fill="none" stroke="black" cx="161.296" cy="-18" rx="30.5947" ry="18"/>
<text text-anchor="middle" x="161.296" y="-14.3" font-family="Times,serif" font-size="14.00">fluffy</text>
</g>
<!-- pow&#45;&gt;fluffy -->
<g id="edge7" class="edge"><title>pow&#45;&gt;fluffy</title>
<path fill="none" stroke="black" d="M190.483,-72.7646C185.944,-64.4043 180.305,-54.0159 175.197,-44.6059"/>
<polygon fill="black" stroke="black" points="178.173,-42.7521 170.326,-35.6334 172.021,-46.0918 178.173,-42.7521"/>
</g>
<!-- soft -->
<g id="node7" class="node"><title>soft</title>
<ellipse fill="none" stroke="black" cx="237.296" cy="-18" rx="27" ry="18"/>
<text text-anchor="middle" x="237.296" y="-14.3" font-family="Times,serif" font-size="14.00">soft</text>
</g>
<!-- pow&#45;&gt;soft -->
<g id="edge8" class="edge"><title>pow&#45;&gt;soft</title>
<path fill="none" stroke="black" d="M208.11,-72.7646C212.714,-64.2831 218.451,-53.7144 223.618,-44.1974"/>
<polygon fill="black" stroke="black" points="226.836,-45.6057 228.531,-35.1473 220.684,-42.266 226.836,-45.6057"/>
</g>
<!-- baker -->
<g id="node8" class="node"><title>baker</title>
<ellipse fill="none" stroke="black" cx="275.296" cy="-234" rx="30.5947" ry="18"/>
<text text-anchor="middle" x="275.296" y="-230.3" font-family="Times,serif" font-size="14.00">baker</text>
</g>
<!-- hood -->
<g id="node9" class="node"><title>hood</title>
<ellipse fill="none" stroke="black" cx="275.296" cy="-162" rx="28.6953" ry="18"/>
<text text-anchor="middle" x="275.296" y="-158.3" font-family="Times,serif" font-size="14.00">hood</text>
</g>
<!-- baker&#45;&gt;hood -->
<g id="edge9" class="edge"><title>baker&#45;&gt;hood</title>
<path fill="none" stroke="black" d="M275.296,-215.697C275.296,-207.983 275.296,-198.712 275.296,-190.112"/>
<polygon fill="black" stroke="black" points="278.797,-190.104 275.296,-180.104 271.797,-190.104 278.797,-190.104"/>
</g>
</g>
</svg>
