<?xml version="1.0" encoding="UTF-8" standalone="no"?>
<!DOCTYPE svg PUBLIC "-//W3C//DTD SVG 1.1//EN"
 "http://www.w3.org/Graphics/SVG/1.1/DTD/svg11.dtd">
<!-- Generated by graphviz version 2.38.0 (20140413.2041)
 -->
<!-- Title: dominator&#45;tree Pages: 1 -->
<svg width="366pt" height="260pt"
 viewBox="0.00 0.00 366.24 260.00" xmlns="http://www.w3.org/2000/svg" xmlns:xlink="http://www.w3.org/1999/xlink">
<g id="graph0" class="graph" transform="scale(1 1) rotate(0) translate(4 256)">
<title>dominator&#45;tree</title>
<polygon fill="white" stroke="none" points="-4,4 -4,-256 362.242,-256 362.242,4 -4,4"/>
<!-- shred -->
<g id="node1" class="node"><title>shred</title>
<ellipse fill="none" stroke="black" cx="172.547" cy="-234" rx="29.795" ry="18"/>
<text text-anchor="middle" x="172.547" y="-230.3" font-family="Times,serif" font-size="14.00">shred</text>
</g>
<!-- gnar_gnar -->
<g id="node2" class="node"><title>gnar_gnar</title>
<ellipse fill="none" stroke="black" cx="68.5473" cy="-162" rx="46.2923" ry="18"/>
<text text-anchor="middle" x="68.5473" y="-158.3" font-family="Times,serif" font-size="14.00">gnar_gnar</text>
</g>
<!-- shred&#45;&gt;gnar_gnar -->
<g id="edge1" class="edge"><title>shred&#45;&gt;gnar_gnar</title>
<path fill="none" stroke="black" d="M152.986,-219.834C137.954,-209.716 116.901,-195.545 99.5772,-183.885"/>
<polygon fill="black" stroke="black" points="101.16,-180.732 90.9098,-178.052 97.2514,-186.539 101.16,-180.732"/>
</g>
<!-- bluebird -->
<g id="node3" class="node"><title>bluebird</title>
<ellipse fill="none" stroke="black" cx="172.547" cy="-162" rx="40.0939" ry="18"/>
<text text-anchor="middle" x="172.547" y="-158.3" font-family="Times,serif" font-size="14.00">bluebird</text>
</g>
<!-- shred&#45;&gt;bluebird -->
<g id="edge2" class="edge"><title>shred&#45;&gt;bluebird</title>
<path fill="none" stroke="black" d="M172.547,-215.697C172.547,-207.983 172.547,-198.712 172.547,-190.112"/>
<polygon fill="black" stroke="black" points="176.047,-190.104 172.547,-180.104 169.047,-190.104 176.047,-190.104"/>
</g>
<!-- weather_report -->
<g id="node4" class="node"><title>weather_report</title>
<ellipse fill="none" stroke="black" cx="294.547" cy="-162" rx="63.8893" ry="18"/>
<text text-anchor="middle" x="294.547" y="-158.3" font-family="Times,serif" font-size="14.00">weather_report</text>
</g>
<!-- shred&#45;&gt;weather_report -->
<g id="edge3" class="edge"><title>shred&#45;&gt;weather_report</title>
<path fill="none" stroke="black" d="M193.52,-220.967C211.403,-210.705 237.505,-195.729 258.697,-183.57"/>
<polygon fill="black" stroke="black" points="260.509,-186.565 267.441,-178.553 257.025,-180.494 260.509,-186.565"/>
</g>
<!-- pow -->
<g id="node5" class="node"><title>pow</title>
<ellipse fill="none" stroke="black" cx="68.5473" cy="-90" rx="27" ry="18"/>
<text text-anchor="middle" x="68.5473" y="-86.3" font-family="Times,serif" font-size="14.00">pow</text>
</g>
<!-- gnar_gnar&#45;&gt;pow -->
<g id="edge4" class="edge"><title>gnar_gnar&#45;&gt;pow</title>
<path fill="none" stroke="black" d="M68.5473,-143.697C68.5473,-135.983 68.5473,-126.712 68.5473,-118.112"/>
<polygon fill="black" stroke="black" points="72.0474,-118.104 68.5473,-108.104 65.0474,-118.104 72.0474,-118.104"/>
</g>
<!-- fluffy -->
<g id="node6" class="node"><title>fluffy</title>
<ellipse fill="none" stroke="black" cx="30.5473" cy="-18" rx="30.5947" ry="18"/>
<text text-anchor="middle" x="30.5473" y="-14.3" font-family="Times,serif" font-size="14.00">fluffy</text>
</g>
<!-- pow&#45;&gt;fluffy -->
<g id="edge5" class="edge"><title>pow&#45;&gt;fluffy</title>
<path fill="none" stroke="black" d="M59.7338,-72.7646C55.1953,-64.4043 49.5559,-54.0159 44.4477,-44.6059"/>
<polygon fill="black" stroke="black" points="47.4238,-42.7521 39.5768,-35.6334 41.2718,-46.0918 47.4238,-42.7521"/>
</g>
<!-- soft -->
<g id="node7" class="node"><title>soft</title>
<ellipse fill="none" stroke="black" cx="106.547" cy="-18" rx="27" ry="18"/>
<text text-anchor="middle" x="106.547" y="-14.3" font-family="Times,serif" font-size="14.00">soft</text>
</g>
<!-- pow&#45;&gt;soft -->
<g id="edge6" class="edge"><title>pow&#45;&gt;soft</title>
<path fill="none" stroke="black" d="M77.3608,-72.7646C81.965,-64.2831 87.7023,-53.7144 92.8687,-44.1974"/>
<polygon fill="black" stroke="black" points="96.0866,-45.6057 97.7816,-35.1473 89.9346,-42.266 96.0866,-45.6057"/>
</g>
</g>
</svg>
