<?xml version="1.0" encoding="UTF-8" standalone="no"?>
<!-- Created with Inkscape (http://www.inkscape.org/) -->

<svg
   xmlns:dc="http://purl.org/dc/elements/1.1/"
   xmlns:cc="http://creativecommons.org/ns#"
   xmlns:rdf="http://www.w3.org/1999/02/22-rdf-syntax-ns#"
   xmlns:svg="http://www.w3.org/2000/svg"
   xmlns="http://www.w3.org/2000/svg"
   xmlns:sodipodi="http://sodipodi.sourceforge.net/DTD/sodipodi-0.dtd"
   xmlns:inkscape="http://www.inkscape.org/namespaces/inkscape"
   width="210mm"
   height="297mm"
   viewBox="0 0 210 297"
   version="1.1"
   id="svg3772"
   inkscape:version="0.92.2 (5c3e80d, 2017-08-06)"
   sodipodi:docname="twiggy.svg">
  <defs
     id="defs3766" />
  <sodipodi:namedview
     id="base"
     pagecolor="#ffffff"
     bordercolor="#666666"
     borderopacity="1.0"
     inkscape:pageopacity="0.0"
     inkscape:pageshadow="2"
     inkscape:zoom="1.4"
     inkscape:cx="326.86452"
     inkscape:cy="623.69701"
     inkscape:document-units="mm"
     inkscape:current-layer="layer4"
     showgrid="false"
     inkscape:window-width="1920"
     inkscape:window-height="1136"
     inkscape:window-x="0"
     inkscape:window-y="27"
     inkscape:window-maximized="1" />
  <metadata
     id="metadata3769">
    <rdf:RDF>
      <cc:Work
         rdf:about="">
        <dc:format>image/svg+xml</dc:format>
        <dc:type
           rdf:resource="http://purl.org/dc/dcmitype/StillImage" />
        <dc:title></dc:title>
      </cc:Work>
    </rdf:RDF>
  </metadata>
  <g
     inkscape:label="Twiggy outline"
     inkscape:groupmode="layer"
     id="layer1"
     style="display:inline">
    <path
       style="fill:none;stroke:#000000;stroke-width:0.26458332px;stroke-linecap:butt;stroke-linejoin:miter;stroke-opacity:1"
       d="m 73.031397,115.9583 c -5.31458,4.0393 -10.461872,8.99867 -15.601857,13.99824"
       id="path4622"
       inkscape:connector-curvature="0"
       sodipodi:nodetypes="cc" />
    <path
       style="fill:none;stroke:#000000;stroke-width:0.26458332px;stroke-linecap:butt;stroke-linejoin:miter;stroke-opacity:1"
       d="m 50.848027,113.2522 c 1.256102,1.8892 2.439345,4.09375 3.510599,6.33311 1.650604,3.45045 3.789215,6.56171 3.070914,10.37123 -0.525901,0.225 -0.210702,0.46813 -1.804069,0.20046 -0.257659,0.29233 -0.841705,-1.2723 -1.09254,-3.37632 -0.244291,-2.04913 -0.675381,-4.3316 -1.112434,-5.84448 -0.892639,-2.21407 -1.785927,-4.42789 -3.374278,-6.38106 -1.379383,-1.33068 -2.882609,-1.29909 -4.34313,-1.73725 -1.136983,-0.33761 -2.289115,-0.56918 -3.340869,-1.50339 -0.222033,-1.45096 0.172185,-3.62502 0.483934,-4.72013 0.582907,-0.55992 0.242511,-0.43236 2.42598,-1.27624 0.852499,-0.32794 2.043138,-0.36499 3.070242,-0.51833 0.285125,0.31214 0.37006,0.56709 0.03341,0.70158 -1.880901,0.98881 -6.532493,1.08645 -3.240644,2.93997"
       id="path4624"
       inkscape:connector-curvature="0"
       sodipodi:nodetypes="csccsccccccccc" />
    <path
       style="fill:none;stroke:#000000;stroke-width:0.26458332px;stroke-linecap:butt;stroke-linejoin:miter;stroke-opacity:1"
       d="m 45.135142,108.44135 c 3.078143,0.58926 3.490652,2.09246 3.340866,-1.20272 0.102499,-0.5412 0.101249,-1.17267 0.734993,-1.5368 l 0.768398,-0.36749 c 0.281511,0.009 0.620142,-0.12491 0.734993,0.30068 -0.62636,0.45053 -1.352104,1.71439 -1.202714,2.23838 -0.12151,0.46772 0.312965,0.7684 0.634766,1.23612 0.597256,0.61777 0.431091,1.30136 0.601357,2.00452 l 0.100225,2.13816"
       id="path4626"
       inkscape:connector-curvature="0"
       sodipodi:nodetypes="ccccccccc" />
    <path
       style="fill:none;stroke:#000000;stroke-width:0.16500001;stroke-linecap:butt;stroke-linejoin:miter;stroke-miterlimit:4;stroke-dasharray:none;stroke-opacity:1"
       d="m 47.373524,110.47928 c 0.842351,0.98843 1.593802,2.295 2.77292,2.10474"
       id="path4628"
       inkscape:connector-curvature="0"
       sodipodi:nodetypes="cc" />
    <path
       style="fill:none;stroke:#000000;stroke-width:0.26458332px;stroke-linecap:butt;stroke-linejoin:miter;stroke-opacity:1"
       d="m 42.36222,111.3145 c -3.487858,-2.33266 -4.342825,-2.84398 -7.450137,-4.91108 -0.547895,-0.56755 0.05717,-0.93567 0.601355,-0.90204 2.547459,0.78408 5.080886,3.4242 6.614922,4.34313"
       id="path4630"
       inkscape:connector-curvature="0"
       sodipodi:nodetypes="cccc" />
    <path
       style="fill:none;stroke:#000000;stroke-width:0.26458332px;stroke-linecap:butt;stroke-linejoin:miter;stroke-opacity:1"
       d="m 42.462445,108.44134 c -2.286754,-1.63398 -6.497918,-4.80299 -6.247424,-2.60587"
       id="path4632"
       inkscape:connector-curvature="0"
       sodipodi:nodetypes="cc" />
    <path
       style="fill:none;stroke:#000000;stroke-width:0.26458332px;stroke-linecap:butt;stroke-linejoin:miter;stroke-opacity:1"
       d="m 97.87076,136.93896 c -2.381385,5.92219 -5.041079,11.60818 -7.850184,17.24058 -1.577321,3.16261 -3.167705,6.43634 -4.716074,9.77284 -0.799312,2.2436 -1.342716,3.95129 -1.869316,5.54408 -2.407595,7.28217 -5.964528,14.21621 -9.280982,21.23317 -0.310535,1.05084 -0.02554,1.53891 0.777549,1.34249 0.615543,0.10499 0.813239,-0.11313 1.187603,-0.16893 1.250669,-0.19734 1.765313,-1.15958 1.873669,-1.75234 2.424805,-10.38747 6.519741,-18.83547 9.413967,-24.78106 -0.105555,-1.37808 4.008276,-10.07691 5.865868,-14.45434 2.265245,-5.33807 4.272411,-8.83227 6.452082,-13.40854"
       id="path4683"
       inkscape:connector-curvature="0"
       sodipodi:nodetypes="cscscccccsc" />
    <path
       style="fill:none;stroke:#000000;stroke-width:0.26458332px;stroke-linecap:butt;stroke-linejoin:miter;stroke-opacity:1"
       d="m 74.154204,190.72963 c 0.0016,0.62406 -0.112325,0.41704 -0.167391,1.05901 -3.072742,3.58997 -8.635318,4.68749 -13.014529,7.03204 -1.770787,0.58312 -3.517513,2.11331 -3.897879,3.11831 0.232975,0.76861 1.155355,0.0941 3.590772,-0.75596 0.80449,-0.005 0.489925,0.42544 0.188989,0.85045 -1.481706,1.06541 -1.372315,1.17617 -1.322917,1.32292 -0.14629,0.79518 0.810931,0.67076 1.771764,0.54334 2.192664,-0.4348 1.028015,0.0417 6.709077,-1.93713 3.556179,-2.25238 6.660112,-3.45782 8.858817,-6.14212 0.26289,-0.36118 0.980147,-1.13925 1.299294,-2.05524 0.172915,-0.75186 -0.544527,-1.90898 -1.252046,-2.22061"
       id="path4685"
       inkscape:connector-curvature="0"
       sodipodi:nodetypes="cccccccccccc" />
    <path
       style="fill:none;stroke:#000000;stroke-width:0.26458332px;stroke-linecap:butt;stroke-linejoin:miter;stroke-opacity:1"
       d="m 99.502231,136.9507 c 4.006209,7.90954 6.599869,16.05815 8.942379,23.90889 0.40444,2.25849 0.67775,2.94357 1.00226,4.2429 l 4.62366,11.93494 c 2.27406,4.95465 2.93408,9.26401 5.07025,15.67455 1.2352,0.97366 3.01596,2.02126 2.70926,0.1083 -1.60683,-3.44413 -1.77918,-4.41521 -4.46886,-11.77427 -1.68538,-5.72509 -3.3473,-11.53387 -5.12225,-17.09363 -1.30419,-3.3099 -2.96185,-6.88704 -4.55806,-10.63834 -2.25644,-5.30292 -3.47883,-11.26204 -4.96915,-17.00984"
       id="path4687"
       inkscape:connector-curvature="0"
       sodipodi:nodetypes="ccccccccsc" />
    <path
       style="fill:none;stroke:#000000;stroke-width:0.26458332px;stroke-linecap:butt;stroke-linejoin:miter;stroke-opacity:1"
       d="m 119.14078,192.71198 c -1.01539,1.34597 -2.26184,3.9925 -0.59803,4.85666 1.82139,0.32635 3.53063,0.37194 5.1263,1.48828 1.98958,0.80874 3.51152,2.08903 5.10268,3.47265 1.60238,0.71617 3.36671,0.51602 5.14993,0.56697 0.66845,0.0122 0.84009,-0.0465 1.08668,-0.0945 0.90654,-0.0346 0.93263,-0.32075 0.51972,-0.73233 -1.03468,-0.57328 -1.50091,-1.21746 -1.06306,-1.46465 0.87923,-0.11404 1.75301,0.20174 2.64583,0.37795 1.11445,0.25305 1.28948,-0.0754 1.08668,-0.63784 -0.56068,-0.79059 -1.29872,-1.4925 -2.36235,-2.03162 -2.42112,-1.57267 -5.08761,-2.29032 -7.81938,-3.09468 -2.29991,-0.66231 -4.23522,-1.62846 -6.16574,-2.59859"
       id="path4689"
       inkscape:connector-curvature="0"
       sodipodi:nodetypes="ccccccccccccc" />
    <path
       style="fill:none;stroke:#000000;stroke-width:0.26458332px;stroke-linecap:butt;stroke-linejoin:miter;stroke-opacity:1"
       d="m 103.1875,138.01376 c 3.07005,0.8657 4.03167,0.67717 5.43341,0.70871 1.6379,0.0967 3.27579,0.011 4.91369,-0.51972 1.61903,-0.38237 2.58176,-1.02727 3.59077,-1.65365 1.29756,-0.96389 2.6476,-1.91029 3.2128,-3.1183 0.46746,-0.68519 2.71226,-6.26746 -1.70094,-2.69308 l -2.5041,2.36235 c -4.33693,1.51241 -8.96188,0.14713 -12.80394,-1.46466"
       id="path4691"
       inkscape:connector-curvature="0"
       sodipodi:nodetypes="cccccccc" />
    <path
       style="fill:none;stroke:#000000;stroke-width:0.26458332px;stroke-linecap:butt;stroke-linejoin:miter;stroke-opacity:1"
       d="m 88.666665,125.14569 c 1.987847,-3.55566 1.143054,-4.68335 11.292137,-15.23436"
       id="path4695"
       inkscape:connector-curvature="0"
       sodipodi:nodetypes="cc" />
    <path
       style="fill:none;stroke:#000000;stroke-width:0.26458332px;stroke-linecap:butt;stroke-linejoin:miter;stroke-opacity:1"
       d="m 85.993969,122.60663 c 6.526266,-5.29442 9.575037,-11.08562 13.831199,-16.70434 0.826202,-0.75405 1.408022,0.6913 2.071342,1.40316 -2.625966,6.87278 -2.967507,14.2532 -4.142682,21.44838"
       id="path4697"
       inkscape:connector-curvature="0"
       sodipodi:nodetypes="cccc" />
    <path
       style="fill:none;stroke:#000000;stroke-width:0.26458332px;stroke-linecap:butt;stroke-linejoin:miter;stroke-opacity:1"
       d="m 98.822906,110.84677 c -0.900695,6.06492 -1.400714,10.46053 -2.255341,13.35505 -0.799239,2.70692 -1.514666,3.7276 -1.553249,5.15337 0.323124,1.72405 1.561557,2.38025 2.939965,2.87314 2.819689,0.4449 3.896869,-0.19928 5.374909,-0.59292 2.7624,-0.7724 3.75722,-2.29465 5.31587,-4.55201 1.86733,-5.35798 -2.38666,2.35887 -4.6104,2.73951"
       id="path4699"
       inkscape:connector-curvature="0"
       sodipodi:nodetypes="csccccc" />
    <path
       style="fill:none;stroke:#000000;stroke-width:0.26458332px;stroke-linecap:butt;stroke-linejoin:miter;stroke-opacity:1"
       d="m 106.44754,129.86365 c 0.8605,-0.0291 4.85259,0.14908 6.18936,-1.53553 0.23807,-0.66541 -0.28207,-0.50943 -0.77957,-0.37797 l -1.06306,0.37797 c -2.15906,0.43616 -3.4585,0.37351 -3.26004,0.37798"
       id="path4701"
       inkscape:connector-curvature="0"
       sodipodi:nodetypes="ccccc" />
    <path
       style="fill:none;stroke:#000000;stroke-width:0.26458332px;stroke-linecap:butt;stroke-linejoin:miter;stroke-opacity:1"
       d="m 111.21949,128.02102 c 0.59376,-0.67912 -1.27152,-0.51699 -3.00018,-0.4016"
       id="path4703"
       inkscape:connector-curvature="0"
       sodipodi:nodetypes="cc" />
    <path
       style="fill:none;stroke:#000000;stroke-width:0.26458332px;stroke-linecap:butt;stroke-linejoin:miter;stroke-opacity:1"
       d="m 106.61291,127.73754 -4.34673,0.49609"
       id="path4705"
       inkscape:connector-curvature="0" />
    <path
       style="fill:none;stroke:#000000;stroke-width:0.26458332px;stroke-linecap:butt;stroke-linejoin:miter;stroke-opacity:1"
       d="m 105.59709,128.80059 -2.05524,0.21262"
       id="path4707"
       inkscape:connector-curvature="0"
       sodipodi:nodetypes="cc" />
    <path
       style="fill:none;stroke:#000000;stroke-width:0.26458332px;stroke-linecap:butt;stroke-linejoin:miter;stroke-opacity:1"
       d="m 98.439172,129.95815 c 1.387921,-0.44655 2.859768,-0.79719 3.827008,-1.72452 1.41828,-1.04062 1.09942,-4.55346 -0.23623,-1.98437 -0.88717,1.50857 -2.516079,1.35432 -4.15774,1.67727"
       id="path4709"
       inkscape:connector-curvature="0"
       sodipodi:nodetypes="cccc" />
    <path
       style="fill:none;stroke:#000000;stroke-width:0.26458332px;stroke-linecap:butt;stroke-linejoin:miter;stroke-opacity:1"
       d="m 89.060638,124.35938 c 1.894417,1.78608 3.925874,3.11379 6.071796,4.14536"
       id="path4711"
       inkscape:connector-curvature="0"
       sodipodi:nodetypes="cc" />
    <path
       style="fill:none;stroke:#000000;stroke-width:0.26458332px;stroke-linecap:butt;stroke-linejoin:miter;stroke-opacity:1"
       d="m 86.402994,122.14467 c -2.593197,-2.84591 -5.124822,-5.75339 -7.190989,-9.12633 1.697699,-4.12254 4.704666,-8.30787 8.833657,-12.1806 1.561878,-1.46494 2.711747,-2.562579 3.694602,-3.488079 3.329505,-6.827307 6.761908,-9.495195 11.592816,-14.866866 0.66646,0.990464 1.57377,1.123677 2.50565,1.369756 2.55155,-0.06532 4.84802,0.552119 7.28309,1.202712 0.89569,0.218495 1.40662,0.0978 2.0516,0.149152 1.10987,-0.07798 5.45113,-1.832652 4.69696,-2.420942 -0.95115,-0.370703 -2.92536,1.240789 -5.07812,1.469982 -1.16392,-0.02191 -3.31327,-0.576154 -2.93996,-0.567949"
       id="path4713"
       inkscape:connector-curvature="0"
       sodipodi:nodetypes="ccscccccccc" />
    <path
       style="fill:none;stroke:#000000;stroke-width:0.26458332px;stroke-linecap:butt;stroke-linejoin:miter;stroke-opacity:1"
       d="m 115.87804,85.055262 c 1.42658,0.397095 2.66166,0.609047 4.12598,0.551248 0.77068,-0.243237 -0.10266,-0.67752 -0.40093,-0.734989 -0.79704,-0.121146 -1.62259,-0.233736 -1.98781,-0.484428"
       id="path4715"
       inkscape:connector-curvature="0"
       sodipodi:nodetypes="cccc" />
    <path
       style="fill:none;stroke:#000000;stroke-width:0.26458332px;stroke-linecap:butt;stroke-linejoin:miter;stroke-opacity:1"
       d="m 116.1119,83.936071 c -1.05682,-0.34189 -2.52713,-0.803777 -3.842,-1.219416"
       id="path4717"
       inkscape:connector-curvature="0"
       sodipodi:nodetypes="cc" />
    <path
       style="fill:none;stroke:#000000;stroke-width:0.26458332px;stroke-linecap:butt;stroke-linejoin:miter;stroke-opacity:1"
       d="m 119.66993,84.838108 c 0.52872,-0.232234 0.11056,-0.882974 -0.71829,-0.985557"
       id="path4719"
       inkscape:connector-curvature="0"
       sodipodi:nodetypes="cc" />
    <path
       style="fill:none;stroke:#000000;stroke-width:0.26458332px;stroke-linecap:butt;stroke-linejoin:miter;stroke-opacity:1"
       d="m 117.49837,83.334715 c -6.35744,-1.988053 -9.2458,-2.938116 -11.526,-2.672695 2.50318,0.01107 2.6789,-0.124574 4.2262,-0.835216 0.84073,-0.786539 0.78121,-1.661469 -0.88534,-0.734992 -0.8018,0.483726 -1.60361,0.496431 -2.40542,0.50113 -2.77722,-0.323001 -3.46573,-0.01615 -4.79415,2.03793 -5.51722,6.248656 -9.021131,11.018471 -12.342134,14.823878 -3.904965,4.57364 -8.202879,10.43982 -12.864719,14.49225 -0.807045,-0.10175 -1.501953,-0.30147 -4.409947,-3.99234 -0.860444,-2.90983 -0.927889,-5.47591 -1.286237,-8.30206 0.548941,-1.998161 -0.147135,-2.211551 -1.135895,-3.574729 -1.180265,-1.075314 -0.912658,-4.638626 -2.328968,-7.76515 0.562348,-4.876862 2.094114,-6.527418 4.693655,-9.002549 3.062353,-2.915794 12.034814,-3.900932 17.545215,-1.000484 2.068881,0.737716 3.861148,0.737792 5.395505,0.05011 1.16837,-0.515066 2.41581,-0.887414 3.406004,-1.937007 1.263221,-1.4929 0.760466,-1.87237 -0.03173,-1.036365 -0.06894,0.07275 0,0 0,0 -1.509877,1.659037 -3.807624,2.973037 -6.07692,2.86462 -2.313574,-0.110532 -5.236883,-2.091118 -8.24601,-2.376688 -2.938219,-0.278841 -6.288181,-0.295336 -8.461797,0.581145 -7.210696,3.128572 -8.305288,7.665259 -8.838135,11.089453 -0.509865,-0.310107 -1.341247,-0.722733 -2.072177,-0.184238 -1.191368,-2.318262 -2.42465,-4.350882 -3.370226,-6.751074 -0.894279,-2.806604 -1.863771,-5.223783 -2.054633,-8.118314 -0.775473,-6.695903 1.841484,-12.750015 8.819894,-13.213135 1.384553,0.256249 2.678174,0.717096 3.708365,1.770661 1.62593,0.838134 1.363473,2.484309 2.438834,3.123713 0.731602,0.610192 0.442021,-0.244573 0.517836,-0.618061 -1.089086,-2.470412 -2.491631,-3.264833 -4.944487,-4.927783 -1.173152,-0.529732 -3.312918,-0.350698 -4.092564,10e-7 -6.178758,2.159025 -6.685092,5.056913 -7.550366,10.991458 0.172024,7.083107 2.574581,12.0915 5.746296,18.157623 -1.121994,1.350063 -1.072928,2.159636 -1.069078,2.990078"
       id="path4721"
       inkscape:connector-curvature="0"
       sodipodi:nodetypes="ccccccccccccscccscsscccccccccccccc" />
    <path
       style="fill:none;stroke:#000000;stroke-width:0.26458332px;stroke-linecap:butt;stroke-linejoin:miter;stroke-opacity:1"
       d="m 63.209243,89.765885 -0.937667,0.07954 c -1.221994,0.445539 -1.137814,1.838867 -0.755946,2.669458 0.738222,1.090468 1.790474,1.903049 2.740326,1.157552 0.847984,-1.541666 0.02818,-2.8181 -1.046707,-3.906546 z"
       id="path4725"
       inkscape:connector-curvature="0"
       sodipodi:nodetypes="cccccc" />
    <path
       style="fill:none;stroke:#000000;stroke-width:0.26458332px;stroke-linecap:butt;stroke-linejoin:miter;stroke-opacity:1"
       d="m 64.58668,92.160525 c 2.603368,1.897228 2.960201,-0.261752 2.923615,-2.313249 -0.0323,-1.811095 -2.80547,-2.793988 -3.608695,0.683228"
       id="path4727"
       inkscape:connector-curvature="0"
       sodipodi:nodetypes="csc" />
    <path
       style="fill:none;stroke:#000000;stroke-width:0.26458332px;stroke-linecap:butt;stroke-linejoin:miter;stroke-opacity:1"
       d="m 63.641739,94.00316 c 3.284986,4.894957 0.08236,7.30285 1.27567,8.45722 3.111438,-0.28073 4.38605,-2.633777 5.055434,-5.669646 -0.103686,3.486736 -0.674671,5.425696 -3.554532,6.783096 -0.367551,0.13137 -0.572624,0.22266 -0.645086,0.37734 -0.09603,0.63906 0.506707,0.95433 0.915209,1.30179 2.084466,1.77385 5.388785,4.75161 5.507747,8.80105"
       id="path4729"
       inkscape:connector-curvature="0"
       sodipodi:nodetypes="ccccccc" />
    <path
       style="fill:none;stroke:#ffffff;stroke-width:0.66500002;stroke-linecap:butt;stroke-linejoin:miter;stroke-miterlimit:4;stroke-dasharray:none;stroke-opacity:1"
       d="m 42.462444,108.44134 c -0.160528,0.85674 -0.19571,1.69902 -0.06681,2.52237"
       id="path4745"
       inkscape:connector-curvature="0"
       sodipodi:nodetypes="cc" />
    <path
       style="fill:#000000;stroke:#000000;stroke-width:0.26458332px;stroke-linecap:butt;stroke-linejoin:miter;stroke-opacity:1"
       d="m 63.641739,94.003158 c 0.240567,-1.317355 -0.207011,-2.330734 -1.441032,-2.551335 -2.127686,0.793028 0.423384,1.837827 1.441032,2.551335 z"
       id="path4758"
       inkscape:connector-curvature="0"
       sodipodi:nodetypes="ccc" />
    <path
       style="fill:#000000;stroke:#000000;stroke-width:0.26458332px;stroke-linecap:butt;stroke-linejoin:miter;stroke-opacity:1"
       d="m 64.58668,92.160523 1.417413,0.543345 c 0.868252,-0.883678 0.138181,-2.538994 -0.810572,-2.886502 -1.549179,0.119361 -1.309786,1.625892 -0.606841,2.343157 z"
       id="path4775"
       inkscape:connector-curvature="0"
       sodipodi:nodetypes="cccc" />
    <path
       style="display:inline;fill:none;stroke:#000000;stroke-width:0.26458332px;stroke-linecap:butt;stroke-linejoin:miter;stroke-opacity:1"
       d="m 72.196182,114.05401 c -4.565623,5.11211 -9.422036,9.49724 -14.699824,12.82893"
       id="path3811"
       inkscape:connector-curvature="0"
       sodipodi:nodetypes="cc" />
    <path
       style="display:inline;fill:none;stroke:#000000;stroke-width:0.26458332px;stroke-linecap:butt;stroke-linejoin:miter;stroke-opacity:1"
       d="m 73.031398,115.9583 c 3.364566,4.69755 6.769424,8.71016 10.22306,11.8935"
       id="path4634"
       inkscape:connector-curvature="0"
       sodipodi:nodetypes="cc" />
    <path
       style="display:inline;fill:none;stroke:#000000;stroke-width:0.26458332px;stroke-linecap:butt;stroke-linejoin:miter;stroke-opacity:1"
       d="m 82.786736,127.35067 c -1.036435,3.28532 -4.896438,6.40336 -7.984678,8.61944 -0.161899,0.83282 0.408014,1.28956 0.734991,1.60361 0.639021,0.19865 1.332161,0.58671 1.80407,0.20046 1.544973,-3.21152 4.348692,-6.40171 7.049236,-9.15398"
       id="path4636"
       inkscape:connector-curvature="0"
       sodipodi:nodetypes="ccccc" />
    <path
       style="display:inline;fill:none;stroke:#000000;stroke-width:0.26458332px;stroke-linecap:butt;stroke-linejoin:miter;stroke-opacity:1"
       d="m 78.944738,135.03466 c 3.751646,0.74865 8.372086,-0.24028 12.895754,-1.03567"
       id="path4657"
       inkscape:connector-curvature="0"
       sodipodi:nodetypes="cc" />
    <path
       style="display:inline;fill:none;stroke:#000000;stroke-width:0.26458332px;stroke-linecap:butt;stroke-linejoin:miter;stroke-opacity:1"
       d="m 77.341119,137.77418 c 5.623992,-1.44985 11.167991,-2.01979 16.704347,-2.50565"
       id="path4659"
       inkscape:connector-curvature="0"
       sodipodi:nodetypes="cc" />
    <path
       style="display:inline;fill:none;stroke:#000000;stroke-width:0.26458332px;stroke-linecap:butt;stroke-linejoin:miter;stroke-opacity:1"
       d="m 83.889223,128.15247 c 4.880867,4.16722 10.010378,7.67857 15.83572,9.35444"
       id="path4661"
       inkscape:connector-curvature="0"
       sodipodi:nodetypes="cc" />
    <path
       style="display:inline;fill:none;stroke:#000000;stroke-width:0.26458332px;stroke-linecap:butt;stroke-linejoin:miter;stroke-opacity:1"
       d="m 94.045466,135.26853 c -0.222723,0.97172 -0.445447,2.00355 -0.668173,3.24064 -0.343093,0.5754 -0.358267,1.44369 -2.190441,1.84391 -0.979987,0.21691 -2.078095,0.33229 -3.058083,0.10427 -1.076045,-0.18733 -1.484387,-0.76124 -1.788433,-0.47039 0.297908,2.05199 2.551653,1.28802 4.230624,1.66262 1.406965,-0.12224 2.734689,-0.48221 3.875411,-1.40317 1.019786,-1.077 2.171427,-1.99578 2.77292,-3.57473"
       id="path4663"
       inkscape:connector-curvature="0"
       sodipodi:nodetypes="cccccccc" />
    <path
       style="display:inline;fill:none;stroke:#000000;stroke-width:0.26458332px;stroke-linecap:butt;stroke-linejoin:miter;stroke-opacity:1"
       d="m 93.811604,135.90329 c -0.467728,0.61254 -0.81714,0.51516 -1.202712,0.63477 l -1.403164,-0.0668 c -0.306914,0.14373 -0.327793,0.33514 -0.100227,0.56795 0.790673,0.46274 1.581343,0.60585 2.372016,0.53453"
       id="path4665"
       inkscape:connector-curvature="0"
       sodipodi:nodetypes="ccccc" />
    <path
       style="display:inline;fill:none;stroke:#000000;stroke-width:0.26458332px;stroke-linecap:butt;stroke-linejoin:miter;stroke-opacity:1"
       d="m 92.391556,141.3683 c -2.319772,2.18927 -12.655038,3.53674 -7.323289,1.77176 l 2.078869,-0.54333 c 3.745206,-1.39981 1.65413,-0.7985 2.291482,-1.18118"
       id="path4693"
       inkscape:connector-curvature="0"
       sodipodi:nodetypes="cccc" />
    <path
       style="display:inline;fill:#ffffff;stroke:#ffffff;stroke-width:0.66500002;stroke-linecap:butt;stroke-linejoin:miter;stroke-miterlimit:4;stroke-dasharray:none;stroke-opacity:1"
       d="m 78.510425,135.73625 c -0.744578,1.01698 -0.86989,1.17341 -1.155727,1.67431"
       id="path4737"
       inkscape:connector-curvature="0"
       sodipodi:nodetypes="cc" />
    <path
       style="display:inline;fill:#ffffff;stroke:#ffffff;stroke-width:0.56500006;stroke-linecap:butt;stroke-linejoin:miter;stroke-miterlimit:4;stroke-dasharray:none;stroke-opacity:1"
       d="m 57.162271,129.63916 c 0.753802,-0.551 0.461238,-1.68639 0.467721,-2.3052"
       id="path4739"
       inkscape:connector-curvature="0"
       sodipodi:nodetypes="cc" />
    <path
       style="display:inline;fill:none;stroke:#ffffff;stroke-width:0.66500002;stroke-linecap:butt;stroke-linejoin:miter;stroke-miterlimit:4;stroke-dasharray:none;stroke-opacity:1"
       d="m 74.121357,191.77933 c 1.007663,0.48952 1.929216,0.0709 2.796799,-0.23469"
       id="path4741"
       inkscape:connector-curvature="0"
       sodipodi:nodetypes="cc" />
    <path
       style="display:inline;fill:none;stroke:#ffffff;stroke-width:0.56500006;stroke-linecap:butt;stroke-linejoin:miter;stroke-miterlimit:4;stroke-dasharray:none;stroke-opacity:1"
       d="m 119.14946,192.85346 c 0.76526,0.39127 2.7339,2.19084 2.58428,0.21228"
       id="path4743"
       inkscape:connector-curvature="0"
       sodipodi:nodetypes="cc" />
  </g>
  <g
     inkscape:groupmode="layer"
     id="layer3"
     inkscape:label="Fill"
     style="display:inline">
    <path
       style="fill:#00ff00;fill-opacity:1;stroke:#00ff00;stroke-width:1.07986498;stroke-miterlimit:4;stroke-dasharray:none;stroke-opacity:1"
       d="m 489.8348,765.18268 c -1.17857,-0.45842 -5.35714,-3.22815 -9.28571,-6.15497 -9.59485,-7.14823 -17.74708,-11.092 -25.22605,-12.20353 -3.4114,-0.50701 -6.94855,-1.85392 -7.86037,-2.99315 -2.84221,-3.5511 2.12084,-15.93897 5.53932,-13.82625 0.77818,0.48096 0.42491,-0.65112 -0.78505,-2.51572 -1.20997,-1.86459 -4.7579,-12.19572 -7.88428,-22.95806 -3.1264,-10.76233 -11.17112,-33.66709 -17.87717,-50.89947 -6.70605,-17.23237 -13.21252,-35.74826 -14.45883,-41.1464 -3.53322,-15.30335 -18.71526,-59.45802 -26.89912,-78.23203 -6.51551,-14.94674 -7.84893,-17.0353 -11.09417,-17.37696 -8.81144,-0.92763 -29.35159,-12.33251 -47.02571,-26.11094 -6.18318,-4.8203 -9.52437,-6.63304 -10,-5.42547 -0.39286,0.99743 -4.17797,5.72527 -8.41135,10.50631 -4.23339,4.78104 -8.8557,10.52239 -10.2718,12.75854 l -2.57473,4.06573 12.41465,-0.39994 c 6.82806,-0.21997 18.38591,-1.36303 25.6841,-2.54013 8.23057,-1.32747 14.13996,-1.653 15.56186,-0.85726 1.58122,0.88489 -2.31393,1.82885 -12.55516,3.04263 -8.16616,0.96785 -20.82553,2.88295 -28.13192,4.25577 -12.04237,2.26269 -13.20276,2.28249 -12.41176,0.21178 0.53594,-1.403 -0.28522,-1.04419 -2.12845,0.93001 -3.44498,3.68979 -3.56439,3.7183 -7.26936,1.73546 -2.78036,-1.48802 -3.87109,-5.66403 -1.47938,-5.66403 2.43123,0 22.40696,-19.73077 25.16991,-24.86124 1.52207,-2.82632 3.32426,-5.13876 4.00487,-5.13876 0.68061,0 -3.08268,-4.66072 -8.36287,-10.35714 -5.28018,-5.69643 -14.09648,-15.98215 -19.59177,-22.85715 -5.49529,-6.875 -10.45768,-12.5 -11.02754,-12.5 -0.56985,0 -5.62992,3.85715 -11.24459,8.57143 -5.61468,4.71429 -10.60197,8.57143 -11.08287,8.57143 -0.48091,0 4.06515,-5.25074 10.10233,-11.66831 10.4546,-11.1133 10.93225,-11.91171 10.042,-16.78571 -1.37924,-7.55114 -7.38061,-16.98441 -16.08228,-25.27897 l -7.69821,-7.33804 5.13536,-3.17383 c 6.21539,-3.84132 9.22774,-9.28524 10.34149,-18.68909 1.03007,-8.69729 -1.21541,-9.34429 -3.45196,-0.99462 -1.70588,6.36852 -7.5025,12.9504 -12.81776,14.55416 -3.06714,0.92544 -3.11909,0.72966 -2.32683,-8.76808 0.59921,-7.18356 0.21185,-11.1441 -1.48678,-15.20103 -3.01218,-7.19419 -1.33974,-10.72064 4.66627,-9.83914 3.7768,0.55431 4.40302,0.13702 5.17808,-3.45053 2.11515,-9.7904 3.00808,-9.87182 4.84735,-0.442 0.98888,5.06992 3.24791,11.14662 5.02006,13.50376 2.52059,3.35263 3.40904,6.92946 4.08068,16.42857 1.53099,21.65283 3.26235,26.89017 11.6884,35.35715 4.10506,4.125 8.36514,7.50568 9.46685,7.51263 1.10171,0.007 7.62811,-5.9309 14.50311,-13.19522 13.23589,-13.98543 15.87398,-15.54784 7.3107,-4.32978 -2.85411,3.73895 -7.13733,10.74836 -9.51827,15.57647 l -4.32898,8.7784 6.97592,9.79303 c 3.83675,5.38617 9.38541,12.41435 12.33034,15.61819 2.94494,3.20383 5.919,7.35131 6.60902,9.21662 1.23286,3.33273 1.39761,3.25658 9.51255,-4.39658 9.87531,-9.31337 20.73968,-22.56313 34.87306,-42.52983 9.94484,-14.04941 10.55859,-14.62987 13.06779,-12.35907 2.13551,1.93261 2.35972,3.09817 1.18697,6.17034 -3.00604,7.8747 -7.00691,27.49168 -10.48714,51.4203 -1.98186,13.62653 -3.60339,25.39512 -3.60339,26.15244 0,0.75731 1.42875,0.37618 3.17501,-0.84694 1.74625,-1.22312 4.66981,-2.22386 6.49678,-2.22386 1.82698,0 4.89822,-1.70102 6.82499,-3.78003 1.92678,-2.07902 3.50322,-3.00105 3.50322,-2.04894 0,3.92963 -3.15932,7.03695 -10.30013,10.13068 -4.15636,1.80072 -6.76159,3.54892 -5.7894,3.88489 0.97218,0.33597 5.38915,-1.04714 9.81549,-3.07359 4.42632,-2.02644 10.05948,-3.58813 12.5181,-3.4704 l 4.47022,0.21405 -4.04084,0.60597 c -2.89001,0.43338 -3.80544,1.21941 -3.21428,2.75993 0.4546,1.18468 0.82655,2.42282 0.82655,2.75142 0,2.24386 4.04132,-0.4696 10.08055,-6.7684 3.88427,-4.05121 7.06231,-6.62051 7.06231,-5.70955 0,0.91097 -3.05357,4.80563 -6.78571,8.6548 -9.98532,10.29843 -26.24939,14.49977 -36.20375,9.35217 -6.90197,-3.56914 -7.36196,-7.18496 -2.74181,-21.55242 2.23995,-6.96568 5.47413,-21.9863 7.18708,-33.37915 1.94468,-12.93421 3.95197,-21.65655 5.34436,-23.22305 1.22646,-1.37981 1.81208,-2.92661 1.30137,-3.43732 -2.30909,-2.30909 -31.47423,32.8778 -38.78894,46.79772 -5.58506,10.62838 -5.95065,11.95138 -2.98848,10.81469 1.12113,-0.43022 2.82263,0.16271 3.78112,1.31762 0.95849,1.15491 5.50549,4.42236 10.10445,7.26099 6.22332,3.84126 8.36174,5.99012 8.36174,8.40255 0,4.17901 6.93431,10.01313 13.32679,11.21237 2.72776,0.51173 8.00579,0.24774 11.72897,-0.58664 5.84701,-1.31035 8.05625,-1.0722 16.21395,1.74772 7.43636,2.57058 12.54519,3.26478 24.0266,3.26478 h 14.58202 l 6.13227,-5.90459 c 3.37274,-3.24751 7.67481,-6.69659 9.56017,-7.66459 3.38446,-1.7377 3.41663,-1.69044 2.5373,3.72823 -2.45889,15.15226 -23.02224,27.70947 -45.34464,27.69012 -11.90263,-0.01 -20.02102,-2.26502 -20.95027,-5.81849 -0.3948,-1.50974 -1.32902,-2.74497 -2.07605,-2.74497 -0.74703,0 -1.02365,1.125 -0.61475,2.5 0.4089,1.375 2.39494,9.1009 4.41342,17.16866 5.89735,23.57135 10.37872,36.65244 21.40268,62.4742 6.25425,14.64955 13.88337,36.1892 19.22741,54.28571 11.2031,37.93697 28.52274,86.9265 28.65154,81.0424 0.0289,-1.317 1.50912,-1.07731 5.39687,0.87382 2.94643,1.47871 11.78572,4.79632 19.64286,7.37248 16.8078,5.51086 28.87479,11.28699 32.85714,15.72783 l 2.85715,3.18609 -7.5,-1.02108 c -8.16942,-1.11221 -9.56936,0.30688 -5.13573,5.20598 2.26948,2.50775 1.96886,2.60797 -7.5,2.4997 -5.42536,-0.062 -10.82856,-0.48786 -12.00713,-0.94628 z"
       id="path4976"
       inkscape:connector-curvature="0"
       transform="scale(0.26458333)" />
    <path
       style="fill:#00ff00;fill-opacity:1;stroke:#00ff00;stroke-width:0.26996624;stroke-miterlimit:4;stroke-dasharray:none;stroke-opacity:1"
       d="m 340.64075,534.40935 c -0.11031,-0.11032 -1.54334,-0.19533 -3.18452,-0.18892 -4.64665,0.0181 -7.34039,-0.56497 -8.72652,-1.88905 -1.22241,-1.16768 -1.92555,-2.72146 -1.23156,-2.72146 0.21749,0 0.99172,0.29961 1.7205,0.6658 4.65165,2.33731 14.27015,2.08122 19.41392,-0.51689 3.33871,-1.68638 4.51303,-4.02579 6.25973,-12.47034 0.56882,-2.75 1.18916,-4.96722 1.37853,-4.92715 0.36404,0.077 9.89934,4.40624 10.1108,4.59051 0.068,0.0593 -0.39649,1.0836 -1.0322,2.27632 -1.43182,2.68638 -7.91355,9.7123 -10.65448,11.54901 -2.3498,1.57462 -4.91429,2.59357 -8.34233,3.31468 -2.49674,0.52521 -5.34579,0.68357 -5.71187,0.31749 z"
       id="path4978"
       inkscape:connector-curvature="0"
       transform="scale(0.26458333)" />
    <path
       style="fill:#00ff00;fill-opacity:1;stroke:#00ff00;stroke-width:0.26996624;stroke-miterlimit:4;stroke-dasharray:none;stroke-opacity:1"
       d="m 347.83157,518.72988 c -2.20535,-0.81193 -3.57026,-1.63575 -3.33658,-2.01386 0.14087,-0.22793 1.24398,-0.27967 2.95811,-0.13874 1.97205,0.16214 3.21803,0.0748 4.47306,-0.31364 l 1.73959,-0.53837 -0.21781,1.31732 c -0.11979,0.72453 -0.21957,1.51822 -0.22173,1.76375 -0.005,0.60246 -3.69253,0.5502 -5.39464,-0.0765 z"
       id="path4980"
       inkscape:connector-curvature="0"
       transform="scale(0.26458333)" />
    <path
       style="fill:#00ff00;fill-opacity:1;stroke:#00ff00;stroke-width:0.26996624;stroke-miterlimit:4;stroke-dasharray:none;stroke-opacity:1"
       d=""
       id="path4982"
       inkscape:connector-curvature="0"
       transform="scale(0.26458333)" />
    <path
       style="fill:#00ff00;fill-opacity:1;stroke:#00ff00;stroke-width:0.26996624;stroke-miterlimit:4;stroke-dasharray:none;stroke-opacity:1"
       d="m 318.22228,543.08451 c 0,-0.26465 4.65909,-1.77296 8.92857,-2.8905 1.86607,-0.48845 5.16071,-1.64766 7.32143,-2.57604 3.76816,-1.61903 4.07732,-1.69025 7.57164,-1.74427 4.23726,-0.0655 4.17961,0.0856 -0.78593,2.05923 -3.84918,1.52995 -7.83571,2.70503 -13.44046,3.96174 -4.04524,0.90704 -9.59525,1.59526 -9.59525,1.18984 z"
       id="path4984"
       inkscape:connector-curvature="0"
       transform="scale(0.26458333)" />
    <path
       style="fill:#00ff00;fill-opacity:1;stroke:#00ff00;stroke-width:0.26996624;stroke-miterlimit:4;stroke-dasharray:none;stroke-opacity:1"
       d="m 226.14011,770.01212 c -0.26762,-0.16965 -0.42356,-0.74372 -0.35715,-1.31475 0.0876,-0.75329 0.74561,-1.52344 2.56203,-2.99868 3.57492,-2.90346 4.43733,-5.11015 2.27703,-5.82636 -0.82113,-0.27223 -2.0091,0.0476 -6.86002,1.84703 -3.22681,1.19695 -6.10524,2.17627 -6.39653,2.17627 -1.6254,0 -0.63537,-1.97302 2.53317,-5.04833 2.75254,-2.67154 5.82401,-4.69614 9.64728,-6.35913 1.72735,-0.75134 4.82814,-2.17181 6.89064,-3.15661 2.0625,-0.9848 7.36607,-3.26615 11.78572,-5.06968 15.76306,-6.43243 23.4539,-10.69625 29.14334,-16.1571 2.80437,-2.6917 2.90495,-2.84579 3.27058,-5.01098 0.2853,-1.68944 1.91809,-5.45448 6.69946,-15.44817 17.43657,-36.44476 22.09507,-47.51224 30.56006,-72.60329 5.70709,-16.91638 5.92637,-17.41353 23.19034,-52.57528 9.77969,-19.91842 14.34755,-29.56354 19.36657,-40.89286 2.48638,-5.61246 9.07411,-21.1284 9.64029,-22.7056 0.17813,-0.49621 0.54012,-0.45675 3.06212,0.33378 l 2.8601,0.89652 -7.43402,14.86476 c -8.73988,17.47589 -11.47893,23.26786 -17.14443,36.2534 -2.31391,5.30357 -6.16594,14.0625 -8.56008,19.46429 -7.82257,17.64974 -11.66306,27.23464 -12.84198,32.05034 -0.44414,1.81423 -2.24079,6.0391 -5.20318,12.23537 -14.21116,29.7247 -22.60191,52.03126 -29.27347,77.82262 -1.9947,7.71122 -2.75178,9.46752 -4.47978,10.39232 -0.87908,0.47047 -0.66698,0.97549 1.2498,2.97596 1.02151,1.06611 1.76804,2.28796 2.16254,3.53946 l 0.60248,1.91129 -0.97938,1.94704 c -1.41161,2.80632 -3.14508,5.10867 -6.4111,8.51508 -3.70322,3.8624 -8.26996,7.26268 -15.28384,11.37996 -17.52655,10.28842 -15.76823,9.41176 -24.91071,12.42003 -10.45617,3.44054 -19.65961,5.22425 -21.36788,4.1413 z m 55.65359,-43.39626 c 0,-0.0753 -0.32165,-0.22103 -0.71477,-0.32384 -0.39313,-0.1028 -0.62472,-0.0412 -0.51464,0.13692 0.19223,0.31104 1.22941,0.46873 1.22941,0.18692 z"
       id="path4986"
       inkscape:connector-curvature="0"
       transform="scale(0.26458333)" />
    <path
       style="fill:#00ff00;fill-opacity:1;stroke:#00ff00;stroke-width:0.26996624;stroke-miterlimit:4;stroke-dasharray:none;stroke-opacity:1"
       d="m 405.41409,488.58451 c 1.14338,-1.3619 1.20712,-1.38605 4.26744,-1.61707 4.3207,-0.32617 8.56689,-1.1172 11.82945,-2.20374 1.52392,-0.50751 3.01892,-0.87027 3.32222,-0.80612 0.49225,0.1041 0.4896,0.2045 -0.0247,0.93508 -1.9902,2.82719 -9.60726,5.06967 -17.23139,5.07296 l -3.32374,10e-4 z"
       id="path4988"
       inkscape:connector-curvature="0"
       transform="scale(0.26458333)" />
    <path
       style="fill:#00ff00;fill-opacity:1;stroke:#00ff00;stroke-width:0.26996624;stroke-miterlimit:4;stroke-dasharray:none;stroke-opacity:1"
       d="m 408.08119,485.23492 c 1.33727,-2.31207 1.28624,-2.28876 5.49494,-2.51079 4.42874,-0.23363 6.43186,-0.0297 6.43186,0.65482 0,0.64406 -1.70737,1.13825 -6.07143,1.75733 -4.73838,0.67219 -6.20136,0.69683 -5.85537,0.0986 z"
       id="path4990"
       inkscape:connector-curvature="0"
       transform="scale(0.26458333)" />
    <path
       style="fill:#00ff00;fill-opacity:1;stroke:#00ff00;stroke-width:0.26996624;stroke-miterlimit:4;stroke-dasharray:none;stroke-opacity:1"
       d="m 211.34524,491.49248 c -1.03601,-0.1083 -1.45978,-0.36927 -1.86171,-1.14652 -1.00829,-1.94982 -1.97935,-6.3085 -3.05785,-13.72546 -1.08919,-7.49043 -2.40326,-14.37854 -3.44956,-18.08201 -1.51585,-5.36545 -6.76347,-16.48181 -10.29257,-21.8034 -4.14465,-6.24979 -6.35034,-7.62338 -16.26399,-10.1284 -3.42815,-0.86623 -7.54804,-2.05648 -9.15531,-2.64498 -3.25402,-1.19146 -6.18603,-3.02922 -6.4513,-4.04362 -0.0987,-0.37727 -0.49239,-0.66532 -0.90942,-0.66532 -0.67631,0 -25.47428,-16.00919 -27.30625,-17.6285 -1.08596,-0.95989 -1.0107,-1.51513 0.26565,-1.96007 0.89387,-0.3116 1.46494,-0.20908 3.48214,0.62516 4.1635,1.72187 7.26378,3.784 16.26457,10.81831 5.87123,4.58849 6.32692,4.86967 6.32692,3.90391 0,-1.12185 -13.00999,-11.10619 -18.49509,-14.19381 -1.62766,-0.91622 -2.90381,-1.83258 -2.83589,-2.03634 0.77429,-2.32288 6.61166,0.33187 17.04527,7.75193 2.65178,1.88587 5.1722,3.42994 5.60093,3.43128 0.86227,0.003 0.92559,-0.14766 1.55886,-3.70113 0.63219,-3.54739 1.51515,-4.40623 6.63736,-6.45601 3.97768,-1.59176 4.6302,-1.73923 12.72974,-2.8767 1.03169,-0.14489 1.40035,-0.0538 1.5699,0.38807 0.35382,0.92203 0.0698,1.03412 -11.19794,4.41883 -5.43272,1.63193 -7.00627,3.42008 -5.11993,5.81818 0.88596,1.12632 3.96402,3.12546 4.81224,3.12546 0.34967,0 2.79239,0.717 5.42827,1.59333 4.88261,1.62328 6.00601,1.7032 6.77932,0.48228 0.1632,-0.25766 0.38586,-2.56501 0.49482,-5.12745 0.15935,-3.74781 0.33608,-4.89527 0.90366,-5.86711 0.78873,-1.35048 3.35382,-2.84108 4.91596,-2.8567 l 1.00606,-0.0101 -1.25575,1.53247 c -1.87041,2.28259 -3.07019,5.10984 -3.0743,7.2445 -0.003,1.64374 0.17673,2.05057 1.93025,4.36513 1.06356,1.40385 2.02465,2.99886 2.13576,3.54446 0.33675,1.65366 0.9305,8.26147 0.9305,10.35548 0,1.86079 0.20207,2.30459 3.76342,8.26574 3.62981,6.07571 13.75958,25.73154 17.05064,33.08508 1.87479,4.18903 3.29683,8.36188 3.95553,11.60714 0.33158,1.63359 0.64717,2.35564 1.06509,2.4369 0.38516,0.0749 0.59389,-0.12198 0.59389,-0.56012 0,-0.46693 1.40645,-1.62337 4.55357,-3.74415 9.98657,-6.72973 20.90175,-15.48991 30,-24.07705 2.60268,-2.45647 4.73215,-4.32155 4.73215,-4.14463 0,0.17693 -0.40931,0.7062 -0.90956,1.17617 -1.29113,1.21296 -3.7333,4.43666 -3.7333,4.92801 0,0.2274 0.36161,0.41746 0.80357,0.42237 0.92235,0.0103 1.67792,-0.74841 -8.31508,8.34907 -3.43117,3.12369 -11.20327,10.43619 -17.27134,16.25 -6.06807,5.81382 -11.452,10.85076 -11.96429,11.19322 -0.90319,0.60377 -1.5984,0.66156 -4.41561,0.36706 z m 5.70106,-8.03911 c -0.0854,-0.44426 -0.15857,-0.16488 -0.16253,0.62083 -0.004,0.78572 0.0659,1.1492 0.15532,0.80774 0.0894,-0.34146 0.0926,-0.98432 0.007,-1.42857 z m -27.39545,-57.90415 c 0,-0.31344 -0.56584,-0.55304 -1.57452,-0.66674 -2.07554,-0.23394 -3.28595,-1.14906 -6.31222,-4.77228 -1.38439,-1.65748 -2.66928,-2.91953 -2.85531,-2.80456 -0.46505,0.28742 -0.16999,0.73623 2.7495,4.18221 1.63982,1.93553 3.09871,3.27677 4.10715,3.77593 1.78792,0.88499 3.8854,1.03908 3.8854,0.28544 z"
       id="path4992"
       inkscape:connector-curvature="0"
       transform="scale(0.26458333)" />
    <path
       style="fill:#00ff00;fill-opacity:1;stroke:#00ff00;stroke-width:0.26996624;stroke-miterlimit:4;stroke-dasharray:none;stroke-opacity:1"
       d="m 255.66374,339.52669 c -0.45413,-7.13201 -8.45047,-9.2229 -12.41007,-3.24498 -0.61461,0.92788 -1.30128,2.3006 -1.52595,3.05048 l -0.4085,1.36343 -0.83418,-0.78368 c -1.6571,-1.55676 -0.84898,-6.16886 1.70607,-9.73695 l 1.48055,-2.06756 -5.55556,-11.30233 c -10.84618,-22.06564 -14.60739,-34.41697 -15.94877,-52.37376 -0.30078,-4.02651 -0.25185,-5.25919 0.3686,-9.28571 3.08439,-20.01677 7.01078,-26.86877 18.90063,-32.98368 7.6363,-3.92733 13.11962,-5.37855 18.37556,-4.86329 3.59748,0.35267 4.5186,0.75035 9.49497,4.09931 5.58653,3.75959 9.97474,8.04016 12.25507,11.95448 1.55866,2.67552 2.20272,5.18604 1.33044,5.18604 -0.81042,0 -2.64905,-2.45949 -4.1025,-5.48781 -1.66664,-3.47249 -2.45368,-4.35328 -7.13773,-7.98788 -4.59344,-3.56429 -10.56437,-5.68264 -14.85867,-5.27153 -8.0535,0.77101 -15.00474,3.85578 -20.48325,9.08992 -6.19495,5.91863 -10.03733,14.0615 -11.4649,24.29672 -1.29202,9.26342 -0.20323,22.2792 2.70403,32.32486 1.98705,6.86599 5.56747,17.18446 7.24098,20.86791 1.54361,3.39754 10.30141,20.22675 10.77041,20.6967 0.0747,0.0748 0.72519,-0.14366 1.4456,-0.48552 1.5822,-0.7508 3.18717,-0.56185 5.52345,0.65026 l 1.64928,0.85567 0.95095,-4.80361 c 1.14856,-5.80185 2.25903,-9.22409 4.38941,-13.52724 4.37687,-8.84084 12.40271,-16.26827 23.69647,-21.92966 7.37994,-3.69945 12.12286,-4.64068 23.399,-4.64353 13.13908,-0.003 16.71589,0.64794 29.17259,5.31174 9.08301,3.40068 11.41222,3.99882 15.59775,4.00547 7.50014,0.0119 14.29164,-3.12408 21.50756,-9.93122 2.61656,-2.46833 3.14615,-2.46108 1.43932,0.0197 -1.33169,1.93554 -3.74226,4.14921 -5.88692,5.40607 -2.3802,1.39489 -9.42921,4.33879 -11.95805,4.99408 -4.30963,1.11673 -11.33303,0.46372 -15.94367,-1.48239 -12.25533,-5.17287 -20.75127,-6.81619 -33.21429,-6.42447 -13.51771,0.42489 -24.40011,3.38153 -31.78572,8.63588 -2.46503,1.75371 -8.8653,8.23548 -11.37385,11.5187 -3.62746,4.74765 -6.28201,10.95271 -7.71551,18.03512 -1.1067,5.46779 -1.04644,6.98195 0.44412,11.1589 0.70096,1.96428 1.38699,4.19103 1.52452,4.94833 0.23304,1.28323 0.20304,1.35174 -0.441,1.00706 -0.77501,-0.41477 -1.25332,-0.20344 -1.79877,0.79475 -0.29581,0.54135 -0.40096,0.20642 -0.51947,-1.65479 z"
       id="path4994"
       inkscape:connector-curvature="0"
       transform="scale(0.26458333)" />
    <path
       style="fill:#00ff00;fill-opacity:1;stroke:#00ff00;stroke-width:0.26996624;stroke-miterlimit:4;stroke-dasharray:none;stroke-opacity:1"
       d="m 317.61233,391.84206 c 2.42145,-2.89732 7.43297,-8.96429 11.13672,-13.48214 3.70375,-4.51786 9.25105,-11.1875 12.32734,-14.82143 3.07629,-3.63393 9.17327,-11.02679 13.54885,-16.42857 11.89506,-14.6848 18.42646,-22.57476 25.57349,-30.89286 3.54426,-4.125 6.94305,-8.22322 7.55285,-9.10714 1.66024,-2.40654 3.6721,-4.29342 5.4707,-5.13085 1.46909,-0.68401 2.25137,-0.74888 9.10714,-0.75515 l 7.5,-0.007 3.24705,-1.51786 c 3.0344,-1.41845 4.79045,-1.87696 4.78733,-1.25 -7.2e-4,0.14732 -0.30896,0.77235 -0.68495,1.38896 -1.29823,2.12906 -6.91926,4.11239 -11.98244,4.2279 -4.85513,0.11076 -4.83128,0.10642 -4.83128,0.87914 0,0.64491 0.26348,0.68944 3.83929,0.64877 5.75426,-0.0654 11.59049,1.30634 30.90081,7.26316 l 7.41866,2.2885 -1.34723,0.59851 c -0.74098,0.32919 -1.66867,0.60924 -2.06153,0.62235 -0.39285,0.0131 -3.73581,-0.93926 -7.42878,-2.11637 -3.69298,-1.17711 -6.84989,-2.1402 -7.01536,-2.1402 -0.50553,0 -0.75197,1.08858 -0.28198,1.2456 0.24223,0.0809 3.0922,0.99012 6.33327,2.02044 l 5.89285,1.87331 -1.54401,0.31366 c -1.65746,0.3367 -7.6027,-0.4226 -10.72245,-1.36942 -2.13346,-0.64748 -2.19782,-0.64244 -2.19782,0.17236 0,0.56834 0.53046,0.80512 3.125,1.39492 8.40393,1.9104 10.47732,1.69158 19.55357,-2.0637 5.17377,-2.14064 7.15472,-2.71728 7.48711,-2.17946 0.56207,0.90945 -5.09359,4.02242 -11.77282,6.47995 -2.97612,1.09502 -3.53185,1.18254 -7.5,1.1812 -3.89284,-10e-4 -4.7985,-0.13786 -9.87935,-1.48943 -7.65229,-2.03561 -12.87591,-2.94875 -18.15637,-3.17389 -7.0236,-0.29946 -10.9284,-1.59172 -13.26105,-4.38861 l -1.20323,-1.4427 -3.03572,3.33931 c -1.66964,1.83663 -6.62969,7.17014 -11.02233,11.85225 -14.71786,15.68776 -21.25449,24.3604 -27.86402,36.96926 l -2.45934,4.69162 -9.1824,8.6767 c -8.68829,8.2098 -13.48078,13.08953 -17.48088,17.7991 -1.42362,1.67612 -1.81852,1.96453 -2.07132,1.5128 -0.46349,-0.82822 -1.18063,-0.68351 -2.54372,0.5133 -0.67116,0.58928 -1.32244,1.07143 -1.44728,1.07143 -0.12485,0 1.75418,-2.37054 4.17563,-5.26786 z"
       id="path4996"
       inkscape:connector-curvature="0"
       transform="scale(0.26458333)" />
    <path
       style="fill:#00ff00;fill-opacity:1;stroke:#00ff00;stroke-width:0.26996624;stroke-miterlimit:4;stroke-dasharray:none;stroke-opacity:1"
       d="m 446.79371,322.62349 c -0.29465,-0.0648 -1.7009,-0.30177 -3.125,-0.52656 -1.42411,-0.22478 -2.58929,-0.52314 -2.58929,-0.66302 0,-0.13987 0.76339,-0.524 1.69643,-0.85361 1.63488,-0.57756 1.85023,-0.56837 5.93598,0.25318 2.39024,0.48063 4.48781,1.10074 4.80868,1.4216 0.52072,0.52073 0.28172,0.5656 -2.81099,0.52769 -1.85905,-0.0228 -3.62117,-0.0945 -3.91581,-0.15928 z"
       id="path4998"
       inkscape:connector-curvature="0"
       transform="scale(0.26458333)" />
    <path
       style="fill:#aaffff;fill-opacity:1;stroke:#aaffff;stroke-width:0.26996624;stroke-miterlimit:4;stroke-dasharray:none;stroke-opacity:1"
       d="m 448.24242,319.47668 -1.94414,-0.41021 1.56916,-0.70759 c 0.86303,-0.38918 1.88685,-0.65377 2.27515,-0.58799 1.03578,0.17548 2.3654,1.13193 2.3654,1.70153 0,0.59423 -1.46263,0.59569 -4.26557,0.004 z"
       id="path5000"
       inkscape:connector-curvature="0"
       transform="scale(0.26458333)" />
    <path
       style="fill:#ccffff;fill-opacity:1;stroke:#ccffff;stroke-width:0.19089496;stroke-miterlimit:4;stroke-dasharray:none;stroke-opacity:1"
       d="m 250.94617,349.24062 c 1.11118,-2.512 0.39477,-6.05784 -1.69312,-8.38007 -1.89545,-2.10821 -3.19657,-2.40816 -5.48343,-1.26414 -0.52086,0.26057 -0.94702,0.41085 -0.94702,0.33396 0,-0.3491 1.40136,-2.86695 2.06393,-3.7083 1.07634,-1.36678 3.16498,-2.31876 4.75265,-2.1662 1.5487,0.14881 3.03094,1.08578 3.97727,2.51414 0.64598,0.97502 0.70281,1.27045 0.78147,4.06269 0.13848,4.91507 -0.82275,8.54342 -2.49202,9.40663 -1.33729,0.69154 -1.54315,0.52021 -0.95973,-0.79871 z"
       id="path5006"
       inkscape:connector-curvature="0"
       transform="scale(0.26458333)" />
    <path
       style="fill:#ccffff;fill-opacity:1;stroke:#ccffff;stroke-width:0.19089496;stroke-miterlimit:4;stroke-dasharray:none;stroke-opacity:1"
       d="m 250.65128,350.09338 c 0,-0.20644 0.17047,-0.78332 0.37881,-1.28196 1.12133,-2.68372 -0.31959,-7.04489 -2.97212,-8.99558 -1.24611,-0.9164 -2.54859,-1.00021 -4.16208,-0.26782 -1.34756,0.61168 -1.37456,0.35214 -0.17162,-1.64955 1.22101,-2.03175 1.78402,-2.6006 3.26521,-3.29909 2.22563,-1.04956 4.49928,-0.59019 6.09948,1.23234 1.24639,1.41955 1.42884,2.32384 1.28034,6.34556 -0.14717,3.98554 -0.60867,5.9817 -1.66483,7.20108 -0.75819,0.87535 -2.05319,1.32633 -2.05319,0.71502 z"
       id="path5008"
       inkscape:connector-curvature="0"
       transform="scale(0.26458333)" />
    <path
       style="fill:#ccffff;fill-opacity:1;stroke:#ccffff;stroke-width:0.19089496;stroke-miterlimit:4;stroke-dasharray:none;stroke-opacity:1"
       d="m 241.26078,352.10763 c -0.0886,-1.68789 -0.24719,-2.33243 -0.84351,-3.42808 -0.87129,-1.60085 -2.06976,-2.65369 -3.62329,-3.18303 -1.54368,-0.52599 -2.03491,-0.48954 -3.43498,0.25488 l -1.20507,0.64074 0.11013,-1.46148 c 0.22976,-3.04928 1.75744,-4.63023 4.71396,-4.87832 1.64791,-0.13828 1.64964,-0.13772 2.49344,0.79625 1.58416,1.75349 1.90728,2.28594 2.02506,3.33711 0.14381,1.28335 0.63253,2.51224 1.49686,3.76382 0.57745,0.83618 0.63228,1.09755 0.47676,2.27285 -0.22001,1.66271 -0.95082,3.34882 -1.60268,3.69769 -0.47286,0.25306 -0.50299,0.16303 -0.60668,-1.81243 z"
       id="path5010"
       inkscape:connector-curvature="0"
       transform="scale(0.26458333)" />
  </g>
  <g
     inkscape:groupmode="layer"
     id="layer4"
     inkscape:label="Binary">
    <text
       xml:space="preserve"
       style="font-style:normal;font-weight:normal;font-size:10.58333302px;line-height:1.25;font-family:sans-serif;letter-spacing:0px;word-spacing:0px;fill:#000000;fill-opacity:1;stroke:none;stroke-width:0.26458332"
       x="48.097469"
       y="106.35825"
       id="text5015"><tspan
         sodipodi:role="line"
         x="48.097469"
         y="106.35825"
         style="font-style:normal;font-variant:normal;font-weight:normal;font-stretch:normal;font-size:5.29166651px;font-family:'Latin Modern Mono Light';-inkscape-font-specification:'Latin Modern Mono Light, Normal';font-variant-ligatures:normal;font-variant-caps:normal;font-variant-numeric:normal;font-feature-settings:normal;text-align:start;writing-mode:lr-tb;text-anchor:start;stroke-width:0.26458332"
         id="tspan5017">01110</tspan></text>
    <text
       xml:space="preserve"
       style="font-style:normal;font-weight:normal;font-size:10.58333302px;line-height:1.25;font-family:sans-serif;letter-spacing:0px;word-spacing:0px;fill:#000000;fill-opacity:1;stroke:none;stroke-width:0.26458332"
       x="100.07777"
       y="44.714355"
       id="text5023"
       transform="rotate(42)"><tspan
         sodipodi:role="line"
         id="tspan5021"
         x="100.07777"
         y="44.714355"
         style="font-style:normal;font-variant:normal;font-weight:normal;font-stretch:normal;font-size:5.99722242px;font-family:'Latin Modern Mono Light';-inkscape-font-specification:'Latin Modern Mono Light, Normal';font-variant-ligatures:normal;font-variant-caps:normal;font-variant-numeric:normal;font-feature-settings:normal;text-align:start;writing-mode:lr-tb;text-anchor:start;stroke-width:0.26458332">01010</tspan></text>
    <text
       xml:space="preserve"
       style="font-style:normal;font-variant:normal;font-weight:normal;font-stretch:normal;font-size:5.99722195px;line-height:1.25;font-family:'Latin Modern Mono Light';-inkscape-font-specification:'Latin Modern Mono Light, Normal';font-variant-ligatures:normal;font-variant-caps:normal;font-variant-numeric:normal;font-feature-settings:normal;text-align:start;letter-spacing:0px;word-spacing:0px;writing-mode:lr-tb;text-anchor:start;fill:#000000;fill-opacity:1;stroke:none;stroke-width:0.26458332"
       x="99.480774"
       y="24.387804"
       id="text5031"
       transform="rotate(18)"><tspan
         sodipodi:role="line"
         x="99.480774"
         y="29.755318"
         style="stroke-width:0.26458332"
         id="tspan5035" /><tspan
         sodipodi:role="line"
         x="99.480774"
         y="37.251846"
         style="font-style:normal;font-variant:normal;font-weight:normal;font-stretch:normal;font-size:3.52777767px;font-family:'Latin Modern Mono Light';-inkscape-font-specification:'Latin Modern Mono Light, Normal';font-variant-ligatures:normal;font-variant-caps:normal;font-variant-numeric:normal;font-feature-settings:normal;text-align:start;writing-mode:lr-tb;text-anchor:start;stroke-width:0.26458332"
         id="tspan5053">3251 ┊ 6.98% ┊ dlmalloc::dlmalloc::Dlmalloc::malloc</tspan></text>
    <rect
       style="fill:#101011;fill-opacity:0;stroke:#ccffff;stroke-width:0.2;stroke-miterlimit:4;stroke-dasharray:none;stroke-opacity:1"
       id="rect5103"
       width="147.22171"
       height="153.8363"
       x="29.482143"
       y="53.772324"
       inkscape:export-filename="/home/fitzgen/Downloads/twiggy.png"
       inkscape:export-xdpi="96"
       inkscape:export-ydpi="96" />
  </g>
</svg>
